<svg xmlns="http://www.w3.org/2000/svg" width="720" height="420" viewBox="0 0 720 420" role="img" aria-labelledby="title desc">
  <title id="title">Tech Local</title>
  <desc id="desc">Imagem ficticia de empresa de tecnologia</desc>
  <defs>
    <linearGradient id="bg" x1="0" x2="1" y1="0" y2="1">
      <stop offset="0" stop-color="#083174"/>
      <stop offset="1" stop-color="#0f6bc5"/>
    </linearGradient>
    <linearGradient id="card" x1="0" x2="1">
      <stop offset="0" stop-color="#ffffff" stop-opacity=".96"/>
      <stop offset="1" stop-color="#dcecff" stop-opacity=".9"/>
    </linearGradient>
  </defs>
  <rect width="720" height="420" rx="34" fill="url(#bg)"/>
  <circle cx="620" cy="76" r="108" fill="#ffc400" opacity=".16"/>
  <circle cx="96" cy="344" r="128" fill="#ffffff" opacity=".09"/>
  <rect x="76" y="86" width="360" height="220" rx="22" fill="url(#card)"/>
  <rect x="108" y="124" width="296" height="28" rx="8" fill="#0f4fa8" opacity=".28"/>
  <rect x="108" y="172" width="180" height="18" rx="9" fill="#0f4fa8" opacity=".42"/>
  <rect x="108" y="208" width="252" height="18" rx="9" fill="#ffc400" opacity=".82"/>
  <rect x="108" y="244" width="134" height="18" rx="9" fill="#0f4fa8" opacity=".38"/>
  <path d="M454 250h118c16 0 29 13 29 29v40H425v-40c0-16 13-29 29-29Z" fill="#001f55" opacity=".86"/>
  <rect x="456" y="178" width="114" height="84" rx="16" fill="#ffffff" opacity=".95"/>
  <path d="M489 223h48M513 199v48" stroke="#0f4fa8" stroke-width="13" stroke-linecap="round"/>
  <text x="76" y="360" fill="#fff" font-family="Arial, Helvetica, sans-serif" font-size="42" font-weight="800">Tech Local</text>
  <text x="78" y="389" fill="#dbe7ff" font-family="Arial, Helvetica, sans-serif" font-size="18" font-weight="700">Software e suporte regional</text>
</svg>
